<svg width="1200" height="630" viewBox="0 0 1200 630" fill="none" xmlns="http://www.w3.org/2000/svg" role="img" aria-label="Salva Navarro Enterprise PKI Architect">
  <defs>
    <linearGradient id="bg" x1="0" y1="0" x2="1200" y2="630" gradientUnits="userSpaceOnUse">
      <stop stop-color="#0B1220"/>
      <stop offset="1" stop-color="#1C2F4D"/>
    </linearGradient>
    <linearGradient id="line" x1="0" y1="0" x2="1" y2="1">
      <stop stop-color="#4CC9F0"/>
      <stop offset="1" stop-color="#90F2B5"/>
    </linearGradient>
  </defs>
  <rect width="1200" height="630" fill="url(#bg)"/>
  <g opacity="0.3">
    <path d="M0 490C180 420 280 560 470 490C660 420 740 250 970 300C1050 317 1120 360 1200 390" stroke="url(#line)" stroke-width="3"/>
    <path d="M0 410C180 340 280 480 470 410C660 340 740 170 970 220C1050 237 1120 280 1200 310" stroke="#4CC9F0" stroke-opacity="0.6" stroke-width="2"/>
  </g>
  <rect x="90" y="90" width="1020" height="450" rx="24" fill="#111B2E" fill-opacity="0.9" stroke="#2A3F63"/>
  <text x="140" y="230" fill="#EAF1FF" font-family="Inter,Segoe UI,Arial,sans-serif" font-size="70" font-weight="700">Salva Navarro</text>
  <text x="140" y="305" fill="#4CC9F0" font-family="Inter,Segoe UI,Arial,sans-serif" font-size="40" font-weight="600">Enterprise PKI Architect</text>
  <text x="140" y="375" fill="#9BB0D0" font-family="Inter,Segoe UI,Arial,sans-serif" font-size="30">PKI Architecture · Microsoft ADCS · Cryptographic Governance</text>
  <text x="140" y="430" fill="#9BB0D0" font-family="Inter,Segoe UI,Arial,sans-serif" font-size="30">Zero Trust Integration · Post-Quantum Readiness · Spain</text>
</svg>
